<svg width="104" height="125" viewBox="0 0 104 125" fill="none" xmlns="http://www.w3.org/2000/svg">
<path d="M99.4402 34.3799H9.88123V109.085H99.4402V34.3799Z" fill="white" stroke="#AB0001" stroke-linecap="round" stroke-linejoin="bevel"/>
<path d="M16.0796 62.3787H18.9686C20.8334 62.3787 22.093 62.4643 22.7472 62.6355C23.4075 62.8067 23.9089 63.0879 24.2513 63.4792C24.5937 63.8705 24.8077 64.3077 24.8933 64.7907C24.9789 65.2677 25.0217 66.2092 25.0217 67.6155V72.8157C25.0217 74.1486 24.9575 75.0413 24.8291 75.4938C24.7068 75.9401 24.4898 76.2917 24.1779 76.5485C23.8661 76.7991 23.4809 76.9765 23.0223 77.0804C22.5638 77.1782 21.8729 77.2271 20.9496 77.2271H16.0796V62.3787ZM19.9407 64.9191V74.6867C20.4971 74.6867 20.8395 74.5766 20.9679 74.3565C21.0963 74.1303 21.1605 73.5219 21.1605 72.5314V66.7626C21.1605 66.09 21.1391 65.659 21.0963 65.4694C21.0535 65.2799 20.9557 65.1423 20.8029 65.0567C20.65 64.965 20.3626 64.9191 19.9407 64.9191Z" fill="#BC3334"/>
<path d="M34.7434 71.3575H29.9467V73.9896C29.9467 74.5399 29.9865 74.8946 30.066 75.0535C30.1454 75.2125 30.2983 75.292 30.5245 75.292C30.8058 75.292 30.9923 75.188 31.084 74.9802C31.1818 74.7662 31.2307 74.3565 31.2307 73.7512V72.1462H34.7434V73.045C34.7434 73.797 34.6945 74.3748 34.5966 74.7784C34.5049 75.1819 34.2848 75.613 33.9363 76.0715C33.5878 76.5301 33.1445 76.8756 32.6064 77.1079C32.0745 77.3341 31.405 77.4473 30.5979 77.4473C29.8153 77.4473 29.1244 77.3341 28.5252 77.1079C27.926 76.8817 27.4582 76.5729 27.1219 76.1816C26.7918 75.7842 26.5625 75.3501 26.4341 74.8793C26.3057 74.4024 26.2415 73.7114 26.2415 72.8065V69.2572C26.2415 68.1933 26.3852 67.3557 26.6725 66.7442C26.9599 66.1267 27.4307 65.6559 28.0849 65.3318C28.7392 65.0017 29.4912 64.8366 30.3411 64.8366C31.3805 64.8366 32.2365 65.0353 32.9091 65.4327C33.5878 65.824 34.0616 66.3468 34.3307 67.001C34.6058 67.6492 34.7434 68.5632 34.7434 69.7433V71.3575ZM31.029 69.3764V68.4868C31.029 67.857 30.9953 67.4504 30.9281 67.267C30.8608 67.0836 30.7232 66.9919 30.5154 66.9919C30.2586 66.9919 30.0996 67.0714 30.0384 67.2303C29.9773 67.3832 29.9467 67.802 29.9467 68.4868V69.3764H31.029Z" fill="#BC3334"/>
<path d="M39.6226 65.0567L39.5583 66.2123C39.8457 65.7537 40.1881 65.4113 40.5855 65.1851C40.983 64.9528 41.4354 64.8366 41.9429 64.8366C42.9334 64.8366 43.713 65.2952 44.2816 66.2123C44.5934 65.7537 44.945 65.4113 45.3363 65.1851C45.7276 64.9528 46.1618 64.8366 46.6387 64.8366C47.2684 64.8366 47.7881 64.9895 48.1978 65.2952C48.6136 65.6009 48.8795 65.9769 48.9957 66.4232C49.1119 66.8635 49.17 67.5819 49.17 68.5785V77.2271H45.5748V69.2939C45.5748 68.2545 45.5381 67.6125 45.4647 67.3679C45.3975 67.1172 45.2354 66.9919 44.9786 66.9919C44.7157 66.9919 44.5445 67.1142 44.465 67.3587C44.3917 67.6033 44.355 68.2484 44.355 69.2939V77.2271H40.7598V69.4957C40.7598 68.3034 40.7292 67.588 40.6681 67.3496C40.6131 67.1111 40.4541 66.9919 40.1912 66.9919C40.0261 66.9919 39.8855 67.0561 39.7693 67.1845C39.6531 67.3068 39.5889 67.4596 39.5767 67.643C39.5645 67.8204 39.5583 68.2025 39.5583 68.7895V77.2271H35.9632V65.0567H39.6226Z" fill="#BC3334"/>
<path d="M58.8366 69.3306V72.3113C58.8366 73.4057 58.7816 74.2098 58.6715 74.7234C58.5615 75.2308 58.3261 75.7077 57.9653 76.1541C57.6046 76.5943 57.1399 76.9214 56.5713 77.1354C56.0088 77.3433 55.3607 77.4473 54.6269 77.4473C53.8076 77.4473 53.1137 77.3586 52.545 77.1813C51.9764 76.9979 51.5331 76.7258 51.2152 76.365C50.9034 75.9982 50.6802 75.5579 50.5457 75.0444C50.4112 74.5246 50.3439 73.7481 50.3439 72.7148V69.5965C50.3439 68.4654 50.4662 67.5819 50.7108 66.946C50.9553 66.3101 51.3956 65.7996 52.0314 65.4144C52.6673 65.0292 53.4805 64.8366 54.471 64.8366C55.3026 64.8366 56.0149 64.9619 56.608 65.2126C57.2072 65.4572 57.6688 65.7782 57.9928 66.1756C58.3169 66.573 58.537 66.9827 58.6532 67.4046C58.7755 67.8265 58.8366 68.4685 58.8366 69.3306ZM55.1314 68.4134C55.1314 67.7898 55.0977 67.3985 55.0305 67.2395C54.9632 67.0744 54.8195 66.9919 54.5994 66.9919C54.3793 66.9919 54.2326 67.0744 54.1592 67.2395C54.0858 67.3985 54.0491 67.7898 54.0491 68.4134V73.9071C54.0491 74.4818 54.0858 74.8579 54.1592 75.0352C54.2326 75.2064 54.3763 75.292 54.5903 75.292C54.8104 75.292 54.9541 75.2125 55.0213 75.0535C55.0947 74.8946 55.1314 74.5522 55.1314 74.0263V68.4134Z" fill="#BC3334"/>
<path d="M67.632 68.9454H64.3486V68.285C64.3486 67.7225 64.315 67.3679 64.2477 67.2212C64.1866 67.0683 64.0276 66.9919 63.7708 66.9919C63.5629 66.9919 63.407 67.0622 63.3031 67.2028C63.1991 67.3373 63.1472 67.5422 63.1472 67.8173C63.1472 68.1903 63.1716 68.4654 63.2205 68.6427C63.2756 68.8139 63.4315 69.0035 63.6883 69.2113C63.9512 69.4192 64.4862 69.7219 65.2933 70.1193C66.3694 70.6451 67.0756 71.1404 67.4119 71.6051C67.7482 72.0698 67.9163 72.7454 67.9163 73.632C67.9163 74.6225 67.7879 75.3715 67.5311 75.8789C67.2743 76.3803 66.8432 76.7686 66.2379 77.0437C65.6387 77.3127 64.9142 77.4473 64.0643 77.4473C63.1227 77.4473 62.3156 77.3005 61.6431 77.007C60.9766 76.7135 60.518 76.3161 60.2674 75.8147C60.0167 75.3134 59.8913 74.5552 59.8913 73.5402V72.9533H63.1747V73.7237C63.1747 74.3779 63.2144 74.8028 63.2939 74.9985C63.3795 75.1942 63.5446 75.292 63.7892 75.292C64.0521 75.292 64.2355 75.2278 64.3395 75.0994C64.4434 74.9649 64.4954 74.6867 64.4954 74.2648C64.4954 73.6839 64.4281 73.3201 64.2936 73.1734C64.153 73.0266 63.4345 72.5925 62.1383 71.8711C61.05 71.2596 60.3866 70.7063 60.1481 70.211C59.9097 69.7097 59.7904 69.1166 59.7904 68.4318C59.7904 67.4596 59.9188 66.7442 60.1756 66.2857C60.4324 65.821 60.8666 65.4633 61.478 65.2126C62.0955 64.9619 62.8109 64.8366 63.6241 64.8366C64.4312 64.8366 65.116 64.9405 65.6785 65.1484C66.2471 65.3502 66.6812 65.6192 66.9808 65.9555C67.2865 66.2918 67.47 66.6036 67.5311 66.891C67.5984 67.1784 67.632 67.6278 67.632 68.2392V68.9454Z" fill="#BC3334"/>
<path d="M73.4466 69.8625V72.4213H68.5766V69.8625H73.4466Z" fill="#BC3334"/>
<path d="M83.3334 62.3787V72.3021C83.3334 73.4271 83.2967 74.2189 83.2233 74.6775C83.15 75.13 82.9329 75.5977 82.5722 76.0807C82.2114 76.5576 81.7345 76.9214 81.1414 77.1721C80.5545 77.4167 79.8605 77.539 79.0595 77.539C78.173 77.539 77.3903 77.3922 76.7117 77.0987C76.033 76.8053 75.5255 76.4231 75.1892 75.9523C74.8529 75.4815 74.6542 74.9863 74.5931 74.4666C74.5319 73.9407 74.5014 72.8402 74.5014 71.1649V62.3787H78.3625V73.5127C78.3625 74.1608 78.3961 74.5766 78.4634 74.76C78.5368 74.9374 78.6805 75.026 78.8944 75.026C79.139 75.026 79.2949 74.9282 79.3622 74.7325C79.4356 74.5308 79.4722 74.06 79.4722 73.3201V62.3787H83.3334Z" fill="#BC3334"/>
<path d="M84.8283 62.3787H87.5614C89.3835 62.3787 90.6155 62.449 91.2575 62.5896C91.9056 62.7302 92.4314 63.091 92.835 63.6718C93.2446 64.2466 93.4494 65.1668 93.4494 66.4324C93.4494 67.588 93.3058 68.3645 93.0184 68.7619C92.731 69.1594 92.1655 69.3978 91.3217 69.4773C92.086 69.6669 92.5996 69.9206 92.8625 70.2385C93.1254 70.5565 93.2874 70.85 93.3486 71.119C93.4158 71.3819 93.4494 72.1126 93.4494 73.311V77.2271H89.8634V72.2929C89.8634 71.4981 89.7992 71.0059 89.6708 70.8163C89.5485 70.6268 89.2214 70.532 88.6895 70.532V77.2271H84.8283V62.3787ZM88.6895 64.9191V68.2208C89.1236 68.2208 89.4263 68.1628 89.5975 68.0466C89.7748 67.9243 89.8634 67.536 89.8634 66.8818V66.0656C89.8634 65.5948 89.7778 65.286 89.6066 65.1393C89.4416 64.9925 89.1358 64.9191 88.6895 64.9191Z" fill="#BC3334"/>
<path d="M3.74229 117.672C3.5586 117.747 3.31961 117.82 3.02533 117.891C2.73291 117.962 2.44425 117.998 2.15934 117.998C1.50142 117.998 0.976577 117.809 0.584821 117.43C0.19494 117.05 0 116.511 0 115.813C0 115.157 0.19494 114.631 0.584821 114.236C0.976577 113.84 1.51173 113.643 2.19027 113.643C2.54079 113.643 2.8257 113.676 3.04501 113.744C3.26431 113.81 3.49112 113.9 3.72542 114.014V114.995H3.62983C3.57922 114.956 3.50612 114.9 3.41052 114.829C3.3168 114.756 3.22495 114.694 3.13498 114.644C3.03001 114.584 2.90817 114.532 2.76947 114.489C2.63263 114.446 2.48736 114.424 2.33366 114.424C2.15372 114.424 1.9897 114.452 1.84162 114.509C1.69354 114.565 1.5614 114.651 1.44518 114.767C1.33459 114.88 1.24649 115.022 1.18089 115.195C1.11716 115.367 1.08529 115.568 1.08529 115.796C1.08529 116.286 1.20807 116.647 1.45362 116.879C1.69917 117.111 2.03469 117.228 2.46019 117.228C2.49767 117.228 2.54172 117.227 2.59233 117.225C2.64294 117.223 2.68699 117.22 2.72448 117.216V116.395H1.91192V115.611H3.74229V117.672Z" fill="#BC3334"/>
<path d="M6.59892 115.684H6.51738C6.47989 115.671 6.42554 115.661 6.35431 115.656C6.28308 115.648 6.20435 115.645 6.11813 115.645C6.01504 115.645 5.90632 115.66 5.79198 115.69C5.67951 115.72 5.56986 115.755 5.46302 115.796V117.911H4.47894V114.753H5.46302V115.206C5.508 115.165 5.56986 115.113 5.64859 115.051C5.72919 114.988 5.80229 114.937 5.86789 114.9C5.93912 114.856 6.0216 114.82 6.11532 114.79C6.21091 114.758 6.30089 114.742 6.38524 114.742C6.4171 114.742 6.45272 114.743 6.49208 114.745C6.53144 114.747 6.56706 114.75 6.59892 114.753V115.684Z" fill="#BC3334"/>
<path d="M9.90822 117.911H8.92415V117.562C8.75357 117.705 8.59706 117.813 8.4546 117.888C8.31215 117.961 8.14251 117.998 7.9457 117.998C7.63267 117.998 7.38805 117.9 7.21186 117.703C7.03754 117.504 6.95038 117.206 6.95038 116.809V114.753H7.94007V116.319C7.94007 116.482 7.94382 116.616 7.95132 116.719C7.96069 116.822 7.98131 116.909 8.01318 116.98C8.04317 117.046 8.08909 117.095 8.15095 117.129C8.21468 117.163 8.30277 117.18 8.41524 117.18C8.48459 117.18 8.56613 117.163 8.65985 117.129C8.75545 117.095 8.84355 117.05 8.92415 116.991V114.753H9.90822V117.911Z" fill="#BC3334"/>
<path d="M13.7602 116.288C13.7602 116.793 13.6318 117.199 13.375 117.509C13.1201 117.818 12.8051 117.973 12.4303 117.973C12.2728 117.973 12.136 117.955 12.0198 117.919C11.9035 117.884 11.7798 117.828 11.6486 117.753V119.069H10.6646V114.753H11.6486V115.082C11.793 114.959 11.9401 114.858 12.0901 114.781C12.24 114.705 12.4134 114.666 12.6102 114.666C12.9757 114.666 13.2588 114.811 13.4593 115.102C13.6599 115.393 13.7602 115.788 13.7602 116.288ZM12.7536 116.308C12.7536 116.001 12.7058 115.778 12.6102 115.639C12.5165 115.5 12.3693 115.431 12.1688 115.431C12.0807 115.431 11.9926 115.445 11.9045 115.473C11.8183 115.501 11.733 115.543 11.6486 115.6V117.188C11.7011 117.211 11.7583 117.227 11.8201 117.236C11.8839 117.245 11.9588 117.25 12.0451 117.25C12.285 117.25 12.4631 117.172 12.5793 117.017C12.6955 116.859 12.7536 116.623 12.7536 116.308Z" fill="#BC3334"/>
<path d="M17.3225 116.333C17.3225 116.853 17.1801 117.262 16.8951 117.562C16.6121 117.86 16.211 118.009 15.6918 118.009C15.1763 118.009 14.7752 117.86 14.4884 117.562C14.2035 117.262 14.061 116.853 14.061 116.333C14.061 115.809 14.2035 115.398 14.4884 115.102C14.7752 114.804 15.1763 114.655 15.6918 114.655C16.2091 114.655 16.6102 114.805 16.8951 115.105C17.1801 115.403 17.3225 115.812 17.3225 116.333ZM16.3131 116.339C16.3131 116.152 16.2972 115.996 16.2653 115.872C16.2354 115.747 16.1932 115.646 16.1388 115.572C16.0807 115.493 16.0151 115.438 15.942 115.408C15.8689 115.377 15.7855 115.361 15.6918 115.361C15.6037 115.361 15.524 115.375 15.4528 115.403C15.3815 115.429 15.3159 115.481 15.256 115.557C15.1997 115.631 15.1547 115.731 15.121 115.858C15.0873 115.986 15.0704 116.146 15.0704 116.339C15.0704 116.532 15.0863 116.689 15.1182 116.809C15.1501 116.927 15.1913 117.021 15.2419 117.093C15.2944 117.166 15.36 117.219 15.4387 117.253C15.5174 117.287 15.6046 117.303 15.7002 117.303C15.7789 117.303 15.8586 117.287 15.9392 117.253C16.0217 117.219 16.0873 117.169 16.136 117.101C16.1941 117.02 16.2382 116.924 16.2682 116.811C16.2981 116.697 16.3131 116.54 16.3131 116.339Z" fill="#BC3334"/>
<path d="M22.4032 117.911H21.4191V117.582C21.3553 117.634 21.2822 117.691 21.1998 117.751C21.1192 117.811 21.0479 117.856 20.9861 117.885C20.9074 117.923 20.8296 117.951 20.7527 117.97C20.6759 117.989 20.584 117.998 20.4772 117.998C20.1173 117.998 19.8324 117.849 19.6224 117.551C19.4125 117.253 19.3075 116.855 19.3075 116.356C19.3075 116.08 19.3432 115.841 19.4144 115.639C19.4856 115.437 19.584 115.26 19.7096 115.11C19.8239 114.974 19.9627 114.866 20.1257 114.787C20.2888 114.706 20.4612 114.666 20.6431 114.666C20.808 114.666 20.943 114.684 21.0479 114.72C21.1548 114.753 21.2785 114.807 21.4191 114.88V113.536H22.4032V117.911ZM21.4191 117.039V115.49C21.3703 115.466 21.3066 115.446 21.2279 115.431C21.1492 115.414 21.0817 115.406 21.0254 115.406C20.7893 115.406 20.6112 115.488 20.4912 115.653C20.3731 115.818 20.3141 116.049 20.3141 116.345C20.3141 116.656 20.361 116.881 20.4547 117.02C20.5503 117.158 20.704 117.228 20.9158 117.228C21.002 117.228 21.0892 117.211 21.1773 117.177C21.2654 117.143 21.346 117.097 21.4191 117.039Z" fill="#BC3334"/>
<path d="M24.7762 117.995C24.1801 117.995 23.7228 117.853 23.4041 117.568C23.0873 117.283 22.9289 116.877 22.9289 116.35C22.9289 115.835 23.077 115.423 23.3732 115.116C23.6693 114.809 24.0836 114.655 24.6159 114.655C25.0995 114.655 25.4632 114.785 25.7068 115.046C25.9505 115.306 26.0723 115.679 26.0723 116.165V116.519H23.9158C23.9252 116.665 23.9561 116.788 24.0086 116.887C24.0611 116.985 24.1304 117.063 24.2167 117.121C24.301 117.179 24.3994 117.221 24.5119 117.247C24.6244 117.272 24.7471 117.284 24.8802 117.284C24.9946 117.284 25.107 117.272 25.2176 117.247C25.3282 117.221 25.4294 117.187 25.5213 117.146C25.6019 117.11 25.6759 117.072 25.7434 117.031C25.8127 116.99 25.869 116.953 25.9121 116.921H26.0161V117.734C25.9355 117.766 25.8615 117.796 25.794 117.824C25.7284 117.85 25.6375 117.877 25.5213 117.905C25.4144 117.933 25.3038 117.955 25.1895 117.97C25.077 117.987 24.9393 117.995 24.7762 117.995ZM25.1023 115.926C25.0967 115.718 25.048 115.559 24.9561 115.451C24.8662 115.342 24.7274 115.288 24.54 115.288C24.3488 115.288 24.1989 115.345 24.0901 115.459C23.9833 115.573 23.9243 115.729 23.913 115.926H25.1023Z" fill="#BC3334"/>
<path d="M28.3217 117.911V113.724H31.153V114.523H29.3676V115.257H31.0124V116.055H29.3676V117.112H31.153V117.911H28.3217Z" fill="#BC3334"/>
<path d="M32.7697 117.998C32.5372 117.998 32.317 117.973 32.1089 117.922C31.9028 117.871 31.7322 117.812 31.5972 117.745V116.913H31.6788C31.7256 116.948 31.779 116.988 31.839 117.031C31.899 117.074 31.9824 117.119 32.0893 117.166C32.1811 117.209 32.2842 117.246 32.3985 117.278C32.5148 117.308 32.6403 117.323 32.7753 117.323C32.914 117.323 33.0358 117.302 33.1408 117.259C33.2477 117.215 33.3011 117.147 33.3011 117.053C33.3011 116.98 33.2767 116.925 33.228 116.887C33.1792 116.85 33.0846 116.814 32.944 116.781C32.869 116.762 32.7744 116.742 32.66 116.721C32.5457 116.699 32.4445 116.674 32.3564 116.646C32.1089 116.569 31.9224 116.455 31.7968 116.305C31.6731 116.154 31.6113 115.955 31.6113 115.709C31.6113 115.569 31.6431 115.437 31.7069 115.313C31.7725 115.187 31.8681 115.076 31.9937 114.978C32.1192 114.883 32.2739 114.807 32.4576 114.751C32.6432 114.694 32.8521 114.666 33.0846 114.666C33.3058 114.666 33.5091 114.689 33.6947 114.734C33.8803 114.777 34.0368 114.829 34.1642 114.891V115.69H34.0855C34.0518 115.663 33.9984 115.629 33.9253 115.586C33.8522 115.541 33.7809 115.502 33.7116 115.47C33.6291 115.433 33.5363 115.402 33.4332 115.378C33.332 115.353 33.228 115.341 33.1211 115.341C32.9787 115.341 32.8578 115.365 32.7584 115.414C32.661 115.463 32.6122 115.527 32.6122 115.608C32.6122 115.679 32.6366 115.736 32.6853 115.777C32.7341 115.818 32.84 115.858 33.003 115.898C33.0874 115.918 33.1839 115.939 33.2926 115.96C33.4032 115.978 33.5091 116.005 33.6104 116.038C33.8372 116.111 34.0087 116.219 34.1249 116.362C34.243 116.502 34.302 116.69 34.302 116.924C34.302 117.072 34.2673 117.214 34.198 117.348C34.1286 117.482 34.0302 117.594 33.9028 117.686C33.7678 117.785 33.6085 117.862 33.4248 117.916C33.243 117.971 33.0246 117.998 32.7697 117.998Z" fill="#BC3334"/>
<path d="M35.9806 117.973C35.5794 117.973 35.287 117.89 35.1033 117.725C34.9215 117.56 34.8306 117.29 34.8306 116.915V115.439H34.4538V114.753H34.8306V113.851H35.8147V114.753H36.7622V115.439H35.8147V116.558C35.8147 116.669 35.8156 116.766 35.8175 116.848C35.8194 116.93 35.8344 117.005 35.8625 117.07C35.8887 117.136 35.9346 117.188 36.0002 117.228C36.0677 117.265 36.1652 117.284 36.2927 117.284C36.3451 117.284 36.4136 117.273 36.4979 117.25C36.5841 117.228 36.6441 117.207 36.6779 117.188H36.7622V117.883C36.6554 117.911 36.542 117.932 36.422 117.947C36.302 117.964 36.1549 117.973 35.9806 117.973Z" fill="#BC3334"/>
<path d="M40.0996 117.911H39.1155V117.562C38.945 117.705 38.7885 117.813 38.646 117.888C38.5035 117.961 38.3339 117.998 38.1371 117.998C37.8241 117.998 37.5795 117.9 37.4033 117.703C37.2289 117.504 37.1418 117.206 37.1418 116.809V114.753H38.1315V116.319C38.1315 116.482 38.1352 116.616 38.1427 116.719C38.1521 116.822 38.1727 116.909 38.2046 116.98C38.2346 117.046 38.2805 117.095 38.3423 117.129C38.4061 117.163 38.4942 117.18 38.6066 117.18C38.676 117.18 38.7575 117.163 38.8513 117.129C38.9468 117.095 39.0349 117.05 39.1155 116.991V114.753H40.0996V117.911Z" fill="#BC3334"/>
<path d="M43.7266 117.911H42.7426V117.582C42.6788 117.634 42.6057 117.691 42.5233 117.751C42.4426 117.811 42.3714 117.856 42.3096 117.885C42.2308 117.923 42.1531 117.951 42.0762 117.97C41.9994 117.989 41.9075 117.998 41.8007 117.998C41.4408 117.998 41.1559 117.849 40.9459 117.551C40.736 117.253 40.631 116.855 40.631 116.356C40.631 116.08 40.6666 115.841 40.7379 115.639C40.8091 115.437 40.9075 115.26 41.0331 115.11C41.1474 114.974 41.2861 114.866 41.4492 114.787C41.6123 114.706 41.7847 114.666 41.9665 114.666C42.1315 114.666 42.2665 114.684 42.3714 114.72C42.4783 114.753 42.602 114.807 42.7426 114.88V113.536H43.7266V117.911ZM42.7426 117.039V115.49C42.6938 115.466 42.6301 115.446 42.5514 115.431C42.4726 115.414 42.4052 115.406 42.3489 115.406C42.1128 115.406 41.9347 115.488 41.8147 115.653C41.6966 115.818 41.6376 116.049 41.6376 116.345C41.6376 116.656 41.6844 116.881 41.7782 117.02C41.8738 117.158 42.0275 117.228 42.2393 117.228C42.3255 117.228 42.4127 117.211 42.5008 117.177C42.5889 117.143 42.6695 117.097 42.7426 117.039Z" fill="#BC3334"/>
<path d="M45.467 117.911H44.483V114.753H45.467V117.911ZM45.4952 114.303H44.4549V113.536H45.4952V114.303Z" fill="#BC3334"/>
<path d="M49.2515 116.333C49.2515 116.853 49.1091 117.262 48.8241 117.562C48.5411 117.86 48.14 118.009 47.6208 118.009C47.1053 118.009 46.7042 117.86 46.4174 117.562C46.1325 117.262 45.99 116.853 45.99 116.333C45.99 115.809 46.1325 115.398 46.4174 115.102C46.7042 114.804 47.1053 114.655 47.6208 114.655C48.1381 114.655 48.5392 114.805 48.8241 115.105C49.1091 115.403 49.2515 115.812 49.2515 116.333ZM48.2421 116.339C48.2421 116.152 48.2262 115.996 48.1943 115.872C48.1643 115.747 48.1222 115.646 48.0678 115.572C48.0097 115.493 47.9441 115.438 47.871 115.408C47.7979 115.377 47.7145 115.361 47.6208 115.361C47.5327 115.361 47.453 115.375 47.3818 115.403C47.3105 115.429 47.2449 115.481 47.185 115.557C47.1287 115.631 47.0837 115.731 47.05 115.858C47.0163 115.986 46.9994 116.146 46.9994 116.339C46.9994 116.532 47.0153 116.689 47.0472 116.809C47.079 116.927 47.1203 117.021 47.1709 117.093C47.2234 117.166 47.289 117.219 47.3677 117.253C47.4464 117.287 47.5336 117.303 47.6292 117.303C47.7079 117.303 47.7876 117.287 47.8682 117.253C47.9507 117.219 48.0163 117.169 48.065 117.101C48.1231 117.02 48.1672 116.924 48.1971 116.811C48.2271 116.697 48.2421 116.54 48.2421 116.339Z" fill="#BC3334"/>
<path d="M50.7361 117.998C50.5036 117.998 50.2834 117.973 50.0753 117.922C49.8691 117.871 49.6986 117.812 49.5636 117.745V116.913H49.6451C49.692 116.948 49.7454 116.988 49.8054 117.031C49.8654 117.074 49.9488 117.119 50.0556 117.166C50.1475 117.209 50.2506 117.246 50.3649 117.278C50.4811 117.308 50.6067 117.323 50.7417 117.323C50.8804 117.323 51.0022 117.302 51.1072 117.259C51.214 117.215 51.2675 117.147 51.2675 117.053C51.2675 116.98 51.2431 116.925 51.1944 116.887C51.1456 116.85 51.051 116.814 50.9104 116.781C50.8354 116.762 50.7407 116.742 50.6264 116.721C50.5121 116.699 50.4108 116.674 50.3227 116.646C50.0753 116.569 49.8888 116.455 49.7632 116.305C49.6395 116.154 49.5777 115.955 49.5777 115.709C49.5777 115.569 49.6095 115.437 49.6733 115.313C49.7389 115.187 49.8345 115.076 49.96 114.978C50.0856 114.883 50.2403 114.807 50.424 114.751C50.6095 114.694 50.8185 114.666 51.051 114.666C51.2721 114.666 51.4755 114.689 51.6611 114.734C51.8467 114.777 52.0032 114.829 52.1306 114.891V115.69H52.0519C52.0182 115.663 51.9647 115.629 51.8916 115.586C51.8185 115.541 51.7473 115.502 51.678 115.47C51.5955 115.433 51.5027 115.402 51.3996 115.378C51.2984 115.353 51.1944 115.341 51.0875 115.341C50.9451 115.341 50.8242 115.365 50.7248 115.414C50.6273 115.463 50.5786 115.527 50.5786 115.608C50.5786 115.679 50.603 115.736 50.6517 115.777C50.7004 115.818 50.8063 115.858 50.9694 115.898C51.0538 115.918 51.1503 115.939 51.259 115.96C51.3696 115.978 51.4755 116.005 51.5767 116.038C51.8035 116.111 51.9751 116.219 52.0913 116.362C52.2094 116.502 52.2684 116.69 52.2684 116.924C52.2684 117.072 52.2337 117.214 52.1644 117.348C52.095 117.482 51.9966 117.594 51.8691 117.686C51.7342 117.785 51.5749 117.862 51.3912 117.916C51.2094 117.971 50.991 117.998 50.7361 117.998Z" fill="#BC3334"/>
<path d="M57.2956 117.911H56.3115V117.582C56.2478 117.634 56.1747 117.691 56.0922 117.751C56.0116 117.811 55.9404 117.856 55.8785 117.885C55.7998 117.923 55.722 117.951 55.6452 117.97C55.5683 117.989 55.4765 117.998 55.3696 117.998C55.0098 117.998 54.7248 117.849 54.5149 117.551C54.305 117.253 54.2 116.855 54.2 116.356C54.2 116.08 54.2356 115.841 54.3068 115.639C54.3781 115.437 54.4765 115.26 54.6021 115.11C54.7164 114.974 54.8551 114.866 55.0182 114.787C55.1813 114.706 55.3537 114.666 55.5355 114.666C55.7005 114.666 55.8354 114.684 55.9404 114.72C56.0472 114.753 56.171 114.807 56.3115 114.88V113.536H57.2956V117.911ZM56.3115 117.039V115.49C56.2628 115.466 56.1991 115.446 56.1203 115.431C56.0416 115.414 55.9741 115.406 55.9179 115.406C55.6817 115.406 55.5037 115.488 55.3837 115.653C55.2656 115.818 55.2066 116.049 55.2066 116.345C55.2066 116.656 55.2534 116.881 55.3471 117.02C55.4427 117.158 55.5964 117.228 55.8083 117.228C55.8945 117.228 55.9816 117.211 56.0697 117.177C56.1578 117.143 56.2384 117.097 56.3115 117.039Z" fill="#BC3334"/>
<path d="M59.6686 117.995C59.0726 117.995 58.6152 117.853 58.2966 117.568C57.9798 117.283 57.8214 116.877 57.8214 116.35C57.8214 115.835 57.9695 115.423 58.2656 115.116C58.5618 114.809 58.976 114.655 59.5084 114.655C59.992 114.655 60.3556 114.785 60.5993 115.046C60.843 115.306 60.9648 115.679 60.9648 116.165V116.519H58.8083C58.8176 116.665 58.8486 116.788 58.9011 116.887C58.9535 116.985 59.0229 117.063 59.1091 117.121C59.1935 117.179 59.2919 117.221 59.4043 117.247C59.5168 117.272 59.6396 117.284 59.7727 117.284C59.887 117.284 59.9995 117.272 60.1101 117.247C60.2207 117.221 60.3219 117.187 60.4137 117.146C60.4943 117.11 60.5684 117.072 60.6358 117.031C60.7052 116.99 60.7614 116.953 60.8045 116.921H60.9086V117.734C60.828 117.766 60.7539 117.796 60.6865 117.824C60.6208 117.85 60.5299 117.877 60.4137 117.905C60.3069 117.933 60.1963 117.955 60.0819 117.97C59.9695 117.987 59.8317 117.995 59.6686 117.995ZM59.9948 115.926C59.9892 115.718 59.9404 115.559 59.8486 115.451C59.7586 115.342 59.6199 115.288 59.4325 115.288C59.2413 115.288 59.0913 115.345 58.9826 115.459C58.8758 115.573 58.8167 115.729 58.8055 115.926H59.9948Z" fill="#BC3334"/>
<path d="M64.142 117.911H63.1579V113.536H64.142V117.911Z" fill="#BC3334"/>
<path d="M66.6359 117.087V116.429C66.4691 116.446 66.3341 116.461 66.231 116.474C66.1279 116.485 66.0267 116.509 65.9274 116.544C65.8411 116.574 65.7737 116.62 65.7249 116.682C65.6781 116.742 65.6546 116.823 65.6546 116.924C65.6546 117.072 65.694 117.174 65.7727 117.23C65.8533 117.285 65.9714 117.312 66.127 117.312C66.2132 117.312 66.3013 117.292 66.3913 117.253C66.4812 117.214 66.5628 117.158 66.6359 117.087ZM66.6359 117.576C66.5684 117.632 66.5075 117.683 66.4531 117.728C66.4007 117.773 66.3294 117.818 66.2394 117.863C66.1514 117.906 66.0651 117.939 65.9808 117.961C65.8983 117.984 65.7821 117.995 65.6321 117.995C65.3528 117.995 65.1204 117.901 64.9348 117.714C64.7512 117.527 64.6593 117.29 64.6593 117.005C64.6593 116.771 64.7062 116.582 64.7999 116.438C64.8936 116.293 65.0286 116.179 65.2048 116.094C65.3828 116.008 65.5956 115.948 65.843 115.915C66.0904 115.881 66.3566 115.855 66.6415 115.836V115.819C66.6415 115.645 66.5768 115.525 66.4475 115.459C66.32 115.392 66.1279 115.358 65.8711 115.358C65.7549 115.358 65.619 115.379 65.4634 115.422C65.3079 115.464 65.156 115.517 65.0079 115.583H64.9236V114.821C65.0211 114.793 65.1785 114.76 65.396 114.722C65.6134 114.683 65.8327 114.663 66.0539 114.663C66.5975 114.663 66.993 114.754 67.2404 114.936C67.4897 115.116 67.6143 115.392 67.6143 115.763V117.911H66.6359V117.576Z" fill="#BC3334"/>
<path d="M73.8253 115.822C73.8253 116.212 73.74 116.561 73.5694 116.87C73.3988 117.178 73.1833 117.414 72.9227 117.579C72.7053 117.72 72.4682 117.811 72.2114 117.852C71.9564 117.891 71.6847 117.911 71.396 117.911H70.0858V113.724H71.3848C71.679 113.724 71.9546 113.743 72.2114 113.781C72.4682 113.818 72.709 113.909 72.934 114.053C73.2095 114.229 73.4269 114.467 73.5863 114.767C73.7456 115.065 73.8253 115.417 73.8253 115.822ZM72.7456 115.813C72.7456 115.538 72.6978 115.303 72.6022 115.108C72.5085 114.911 72.3632 114.757 72.1664 114.646C72.0239 114.568 71.874 114.525 71.7165 114.517C71.5609 114.51 71.3744 114.506 71.157 114.506H71.1373V117.126H71.157C71.3932 117.126 71.5919 117.123 71.7531 117.115C71.9162 117.106 72.0708 117.055 72.217 116.963C72.3894 116.855 72.5207 116.705 72.6106 116.513C72.7006 116.322 72.7456 116.089 72.7456 115.813Z" fill="#BC3334"/>
<path d="M76.0099 117.995C75.4138 117.995 74.9565 117.853 74.6378 117.568C74.321 117.283 74.1627 116.877 74.1627 116.35C74.1627 115.835 74.3107 115.423 74.6069 115.116C74.903 114.809 75.3173 114.655 75.8496 114.655C76.3332 114.655 76.6969 114.785 76.9406 115.046C77.1842 115.306 77.3061 115.679 77.3061 116.165V116.519H75.1495C75.1589 116.665 75.1898 116.788 75.2423 116.887C75.2948 116.985 75.3642 117.063 75.4504 117.121C75.5347 117.179 75.6331 117.221 75.7456 117.247C75.8581 117.272 75.9808 117.284 76.1139 117.284C76.2283 117.284 76.3407 117.272 76.4513 117.247C76.5619 117.221 76.6631 117.187 76.755 117.146C76.8356 117.11 76.9096 117.072 76.9771 117.031C77.0465 116.99 77.1027 116.953 77.1458 116.921H77.2498V117.734C77.1692 117.766 77.0952 117.796 77.0277 117.824C76.9621 117.85 76.8712 117.877 76.755 117.905C76.6481 117.933 76.5375 117.955 76.4232 117.97C76.3107 117.987 76.173 117.995 76.0099 117.995ZM76.336 115.926C76.3304 115.718 76.2817 115.559 76.1898 115.451C76.0999 115.342 75.9612 115.288 75.7737 115.288C75.5825 115.288 75.4326 115.345 75.3239 115.459C75.217 115.573 75.158 115.729 75.1467 115.926H76.336Z" fill="#BC3334"/>
<path d="M81.5854 117.911V116.333C81.5854 116.178 81.5826 116.047 81.5769 115.94C81.5713 115.833 81.5545 115.746 81.5263 115.678C81.4982 115.611 81.4542 115.562 81.3942 115.532C81.3361 115.5 81.2536 115.484 81.1468 115.484C81.0718 115.484 80.9977 115.501 80.9246 115.535C80.8515 115.567 80.7719 115.613 80.6857 115.673V117.911H79.696V116.333C79.696 116.18 79.6922 116.049 79.6847 115.943C79.6791 115.834 79.6622 115.746 79.6341 115.678C79.606 115.611 79.5619 115.562 79.502 115.532C79.4438 115.5 79.3623 115.484 79.2573 115.484C79.1767 115.484 79.098 115.503 79.0212 115.541C78.9443 115.578 78.8693 115.622 78.7962 115.673V117.911H77.8122V114.753H78.7962V115.102C78.9574 114.965 79.1093 114.858 79.2517 114.781C79.3942 114.705 79.5544 114.666 79.7325 114.666C79.9256 114.666 80.0952 114.712 80.2414 114.804C80.3876 114.896 80.4992 115.033 80.576 115.214C80.7653 115.038 80.9434 114.903 81.1102 114.81C81.2789 114.714 81.4495 114.666 81.6219 114.666C81.7681 114.666 81.8993 114.69 82.0156 114.736C82.1318 114.783 82.2302 114.854 82.3108 114.947C82.3989 115.049 82.4645 115.169 82.5076 115.31C82.5526 115.449 82.5751 115.631 82.5751 115.855V117.911H81.5854Z" fill="#BC3334"/>
<path d="M86.337 116.333C86.337 116.853 86.1946 117.262 85.9097 117.562C85.6266 117.86 85.2255 118.009 84.7063 118.009C84.1908 118.009 83.7897 117.86 83.5029 117.562C83.218 117.262 83.0755 116.853 83.0755 116.333C83.0755 115.809 83.218 115.398 83.5029 115.102C83.7897 114.804 84.1908 114.655 84.7063 114.655C85.2236 114.655 85.6248 114.805 85.9097 115.105C86.1946 115.403 86.337 115.812 86.337 116.333ZM85.3277 116.339C85.3277 116.152 85.3117 115.996 85.2799 115.872C85.2499 115.747 85.2077 115.646 85.1534 115.572C85.0952 115.493 85.0296 115.438 84.9565 115.408C84.8834 115.377 84.8 115.361 84.7063 115.361C84.6182 115.361 84.5385 115.375 84.4673 115.403C84.3961 115.429 84.3305 115.481 84.2705 115.557C84.2143 115.631 84.1693 115.731 84.1355 115.858C84.1018 115.986 84.0849 116.146 84.0849 116.339C84.0849 116.532 84.1009 116.689 84.1327 116.809C84.1646 116.927 84.2058 117.021 84.2564 117.093C84.3089 117.166 84.3745 117.219 84.4533 117.253C84.532 117.287 84.6191 117.303 84.7147 117.303C84.7935 117.303 84.8731 117.287 84.9537 117.253C85.0362 117.219 85.1018 117.169 85.1505 117.101C85.2086 117.02 85.2527 116.924 85.2827 116.811C85.3127 116.697 85.3277 116.54 85.3277 116.339Z" fill="#BC3334"/>
<path d="M88.4092 117.995C88.1487 117.995 87.9097 117.962 87.6923 117.897C87.4767 117.831 87.2893 117.73 87.1299 117.593C86.9725 117.456 86.8497 117.285 86.7616 117.079C86.6735 116.87 86.6295 116.626 86.6295 116.345C86.6295 116.043 86.6773 115.786 86.7729 115.574C86.8685 115.363 86.9978 115.188 87.1609 115.051C87.3183 114.92 87.5029 114.824 87.7148 114.762C87.9284 114.698 88.1506 114.666 88.3811 114.666C88.5554 114.666 88.7298 114.687 88.9041 114.728C89.0784 114.767 89.2537 114.831 89.4299 114.919V115.763H89.3033C89.264 115.725 89.2152 115.684 89.1571 115.639C89.1009 115.594 89.039 115.553 88.9716 115.515C88.9003 115.476 88.8197 115.443 88.7298 115.417C88.6398 115.389 88.5395 115.375 88.4289 115.375C88.1777 115.375 87.9828 115.463 87.8441 115.639C87.7073 115.813 87.6388 116.049 87.6388 116.345C87.6388 116.661 87.7119 116.898 87.8581 117.053C88.0062 117.209 88.2021 117.287 88.4458 117.287C88.5695 117.287 88.6782 117.273 88.7719 117.244C88.8656 117.216 88.9463 117.183 89.0137 117.143C89.0793 117.104 89.1356 117.064 89.1824 117.022C89.2293 116.979 89.2696 116.941 89.3033 116.907H89.4299V117.751C89.3736 117.775 89.308 117.803 89.233 117.835C89.1599 117.867 89.085 117.893 89.0081 117.914C88.9125 117.94 88.8225 117.96 88.7382 117.973C88.6557 117.988 88.5461 117.995 88.4092 117.995Z" fill="#BC3334"/>
<path d="M92.0166 115.684H91.935C91.8975 115.671 91.8432 115.661 91.772 115.656C91.7007 115.648 91.622 115.645 91.5358 115.645C91.4327 115.645 91.324 115.66 91.2096 115.69C91.0972 115.72 90.9875 115.755 90.8807 115.796V117.911H89.8966V114.753H90.8807V115.206C90.9257 115.165 90.9875 115.113 91.0662 115.051C91.1468 114.988 91.2199 114.937 91.2855 114.9C91.3568 114.856 91.4392 114.82 91.533 114.79C91.6286 114.758 91.7185 114.742 91.8029 114.742C91.8348 114.742 91.8704 114.743 91.9097 114.745C91.9491 114.747 91.9847 114.75 92.0166 114.753V115.684Z" fill="#BC3334"/>
<path d="M94.1337 117.087V116.429C93.9669 116.446 93.8319 116.461 93.7289 116.474C93.6258 116.485 93.5245 116.509 93.4252 116.544C93.339 116.574 93.2715 116.62 93.2228 116.682C93.1759 116.742 93.1525 116.823 93.1525 116.924C93.1525 117.072 93.1918 117.174 93.2706 117.23C93.3512 117.285 93.4692 117.312 93.6248 117.312C93.711 117.312 93.7991 117.292 93.8891 117.253C93.9791 117.214 94.0606 117.158 94.1337 117.087ZM94.1337 117.576C94.0663 117.632 94.0053 117.683 93.951 117.728C93.8985 117.773 93.8273 117.818 93.7373 117.863C93.6492 117.906 93.563 117.939 93.4786 117.961C93.3961 117.984 93.2799 117.995 93.13 117.995C92.8507 117.995 92.6183 117.901 92.4327 117.714C92.249 117.527 92.1572 117.29 92.1572 117.005C92.1572 116.771 92.204 116.582 92.2977 116.438C92.3914 116.293 92.5264 116.179 92.7026 116.094C92.8807 116.008 93.0934 115.948 93.3408 115.915C93.5883 115.881 93.8544 115.855 94.1394 115.836V115.819C94.1394 115.645 94.0747 115.525 93.9454 115.459C93.8179 115.392 93.6258 115.358 93.369 115.358C93.2527 115.358 93.1169 115.379 92.9613 115.422C92.8057 115.464 92.6539 115.517 92.5058 115.583H92.4214V114.821C92.5189 114.793 92.6764 114.76 92.8938 114.722C93.1112 114.683 93.3305 114.663 93.5517 114.663C94.0953 114.663 94.4908 114.754 94.7382 114.936C94.9875 115.116 95.1122 115.392 95.1122 115.763V117.911H94.1337V117.576Z" fill="#BC3334"/>
<path d="M97.3896 117.995C97.1291 117.995 96.8901 117.962 96.6726 117.897C96.4571 117.831 96.2696 117.73 96.1103 117.593C95.9529 117.456 95.8301 117.285 95.742 117.079C95.6539 116.87 95.6098 116.626 95.6098 116.345C95.6098 116.043 95.6576 115.786 95.7532 115.574C95.8488 115.363 95.9782 115.188 96.1412 115.051C96.2987 114.92 96.4833 114.824 96.6951 114.762C96.9088 114.698 97.1309 114.666 97.3615 114.666C97.5358 114.666 97.7101 114.687 97.8845 114.728C98.0588 114.767 98.234 114.831 98.4102 114.919V115.763H98.2837C98.2444 115.725 98.1956 115.684 98.1375 115.639C98.0813 115.594 98.0194 115.553 97.9519 115.515C97.8807 115.476 97.8001 115.443 97.7101 115.417C97.6202 115.389 97.5199 115.375 97.4093 115.375C97.1581 115.375 96.9632 115.463 96.8245 115.639C96.6876 115.813 96.6192 116.049 96.6192 116.345C96.6192 116.661 96.6923 116.898 96.8385 117.053C96.9866 117.209 97.1825 117.287 97.4262 117.287C97.5499 117.287 97.6586 117.273 97.7523 117.244C97.846 117.216 97.9266 117.183 97.9941 117.143C98.0597 117.104 98.116 117.064 98.1628 117.022C98.2097 116.979 98.25 116.941 98.2837 116.907H98.4102V117.751C98.354 117.775 98.2884 117.803 98.2134 117.835C98.1403 117.867 98.0653 117.893 97.9885 117.914C97.8929 117.94 97.8029 117.96 97.7186 117.973C97.6361 117.988 97.5265 117.995 97.3896 117.995Z" fill="#BC3334"/>
<path d="M99.861 117.911H98.877V114.753H99.861V117.911ZM99.8892 114.303H98.8489V113.536H99.8892V114.303Z" fill="#BC3334"/>
<path d="M102.355 117.087V116.429C102.188 116.446 102.053 116.461 101.95 116.474C101.847 116.485 101.746 116.509 101.646 116.544C101.56 116.574 101.493 116.62 101.444 116.682C101.397 116.742 101.374 116.823 101.374 116.924C101.374 117.072 101.413 117.174 101.492 117.23C101.572 117.285 101.69 117.312 101.846 117.312C101.932 117.312 102.02 117.292 102.11 117.253C102.2 117.214 102.282 117.158 102.355 117.087ZM102.355 117.576C102.287 117.632 102.227 117.683 102.172 117.728C102.12 117.773 102.049 117.818 101.959 117.863C101.87 117.906 101.784 117.939 101.7 117.961C101.617 117.984 101.501 117.995 101.351 117.995C101.072 117.995 100.839 117.901 100.654 117.714C100.47 117.527 100.378 117.29 100.378 117.005C100.378 116.771 100.425 116.582 100.519 116.438C100.613 116.293 100.748 116.179 100.924 116.094C101.102 116.008 101.315 115.948 101.562 115.915C101.81 115.881 102.076 115.855 102.361 115.836V115.819C102.361 115.645 102.296 115.525 102.167 115.459C102.039 115.392 101.847 115.358 101.59 115.358C101.474 115.358 101.338 115.379 101.183 115.422C101.027 115.464 100.875 115.517 100.727 115.583H100.643V114.821C100.74 114.793 100.898 114.76 101.115 114.722C101.332 114.683 101.552 114.663 101.773 114.663C102.317 114.663 102.712 114.754 102.959 114.936C103.209 115.116 103.333 115.392 103.333 115.763V117.911H102.355V117.576Z" fill="#BC3334"/>
<path d="M20.1411 124.795C19.5761 124.795 19.1411 124.658 18.836 124.385C18.5327 124.112 18.3811 123.713 18.3811 123.187V120.501H19.4377V123.125C19.4377 123.417 19.4923 123.634 19.6015 123.778C19.7127 123.921 19.8925 123.992 20.1411 123.992C20.3841 123.992 20.562 123.923 20.675 123.786C20.7899 123.649 20.8474 123.428 20.8474 123.125V120.501H21.9039V123.184C21.9039 123.702 21.7551 124.101 21.4576 124.379C21.1619 124.656 20.7231 124.795 20.1411 124.795Z" fill="#BC3334"/>
<path d="M25.6329 124.707H24.6385V123.133C24.6385 123.005 24.6329 122.878 24.6216 122.752C24.6122 122.624 24.5933 122.53 24.5651 122.47C24.5312 122.398 24.4822 122.347 24.4182 122.317C24.3541 122.285 24.2685 122.269 24.1611 122.269C24.0801 122.269 23.9982 122.284 23.9153 122.314C23.8325 122.344 23.7439 122.392 23.6498 122.458V124.707H22.661V121.534H23.6498V121.885C23.8117 121.747 23.969 121.64 24.1216 121.563C24.276 121.485 24.4464 121.447 24.6329 121.447C24.9568 121.447 25.2045 121.55 25.3759 121.755C25.5472 121.958 25.6329 122.254 25.6329 122.642V124.707Z" fill="#BC3334"/>
<path d="M27.3562 124.707H26.3674V121.534H27.3562V124.707ZM27.3844 121.082H26.3392V120.311H27.3844V121.082Z" fill="#BC3334"/>
<path d="M31.0824 121.534L29.9439 124.707H28.8647L27.7347 121.534H28.7743L29.4241 123.633L30.0654 121.534H31.0824Z" fill="#BC3334"/>
<path d="M33.0881 124.792C32.4892 124.792 32.0297 124.649 31.7095 124.362C31.3912 124.076 31.2321 123.668 31.2321 123.139C31.2321 122.621 31.3809 122.208 31.6784 121.899C31.976 121.59 32.3922 121.436 32.9271 121.436C33.413 121.436 33.7784 121.566 34.0232 121.828C34.268 122.09 34.3905 122.465 34.3905 122.953V123.309H32.2237C32.2331 123.455 32.2642 123.579 32.3169 123.679C32.3696 123.777 32.4393 123.855 32.5259 123.913C32.6107 123.971 32.7096 124.014 32.8226 124.04C32.9356 124.065 33.0589 124.077 33.1926 124.077C33.3075 124.077 33.4205 124.065 33.5317 124.04C33.6428 124.014 33.7445 123.98 33.8368 123.939C33.9177 123.903 33.9921 123.864 34.0599 123.823C34.1296 123.781 34.1861 123.745 34.2294 123.713H34.334V124.529C34.253 124.561 34.1786 124.591 34.1108 124.619C34.0449 124.646 33.9535 124.673 33.8368 124.701C33.7294 124.73 33.6183 124.751 33.5034 124.766C33.3904 124.783 33.252 124.792 33.0881 124.792ZM33.4158 122.712C33.4102 122.503 33.3612 122.344 33.2689 122.235C33.1785 122.126 33.0392 122.071 32.8508 122.071C32.6587 122.071 32.5081 122.129 32.3988 122.244C32.2915 122.358 32.2321 122.515 32.2208 122.712H33.4158Z" fill="#BC3334"/>
<path d="M37.029 122.47H36.9471C36.9094 122.456 36.8548 122.447 36.7832 122.441C36.7117 122.434 36.6326 122.43 36.5459 122.43C36.4423 122.43 36.3331 122.445 36.2182 122.475C36.1052 122.505 35.9951 122.541 35.8877 122.583V124.707H34.899V121.534H35.8877V121.989C35.9329 121.948 35.9951 121.896 36.0742 121.834C36.1551 121.77 36.2286 121.719 36.2945 121.681C36.3661 121.638 36.4489 121.601 36.5431 121.571C36.6392 121.539 36.7296 121.523 36.8143 121.523C36.8463 121.523 36.8821 121.524 36.9217 121.526C36.9612 121.528 36.997 121.531 37.029 121.534V122.47Z" fill="#BC3334"/>
<path d="M38.3737 124.795C38.1402 124.795 37.9189 124.769 37.7098 124.718C37.5027 124.667 37.3313 124.608 37.1957 124.54V123.704H37.2776C37.3247 123.74 37.3784 123.779 37.4386 123.823C37.4989 123.866 37.5827 123.911 37.6901 123.958C37.7823 124.002 37.8859 124.039 38.0008 124.071C38.1176 124.101 38.2438 124.117 38.3794 124.117C38.5187 124.117 38.6411 124.095 38.7466 124.052C38.854 124.008 38.9076 123.939 38.9076 123.845C38.9076 123.772 38.8832 123.716 38.8342 123.679C38.7852 123.641 38.6901 123.605 38.5489 123.571C38.4735 123.552 38.3784 123.533 38.2635 123.512C38.1487 123.489 38.047 123.464 37.9584 123.436C37.7098 123.358 37.5224 123.245 37.3963 123.094C37.272 122.941 37.2098 122.742 37.2098 122.495C37.2098 122.354 37.2418 122.221 37.3059 122.097C37.3718 121.97 37.4678 121.858 37.594 121.76C37.7202 121.664 37.8756 121.588 38.0601 121.532C38.2466 121.475 38.4566 121.447 38.6901 121.447C38.9123 121.447 39.1167 121.469 39.3031 121.515C39.4896 121.558 39.6468 121.611 39.7749 121.673V122.475H39.6958C39.6619 122.449 39.6082 122.414 39.5348 122.371C39.4613 122.325 39.3898 122.287 39.3201 122.255C39.2372 122.217 39.144 122.186 39.0404 122.162C38.9387 122.137 38.8342 122.125 38.7268 122.125C38.5837 122.125 38.4622 122.149 38.3624 122.198C38.2645 122.247 38.2155 122.312 38.2155 122.393C38.2155 122.465 38.24 122.521 38.289 122.563C38.3379 122.604 38.4443 122.645 38.6082 122.684C38.6929 122.705 38.7899 122.726 38.8992 122.746C39.0103 122.765 39.1167 122.792 39.2184 122.825C39.4463 122.899 39.6186 123.007 39.7354 123.15C39.854 123.292 39.9133 123.48 39.9133 123.715C39.9133 123.864 39.8785 124.006 39.8088 124.142C39.7391 124.276 39.6403 124.389 39.5122 124.481C39.3766 124.581 39.2165 124.658 39.0319 124.713C38.8493 124.767 38.6298 124.795 38.3737 124.795Z" fill="#BC3334"/>
<path d="M41.3739 124.707H40.3851V121.534H41.3739V124.707ZM41.4021 121.082H40.3569V120.311H41.4021V121.082Z" fill="#BC3334"/>
<path d="M45.0153 124.707H44.0266V124.376C43.9625 124.429 43.8891 124.486 43.8062 124.546C43.7252 124.606 43.6536 124.651 43.5915 124.682C43.5124 124.719 43.4342 124.747 43.357 124.766C43.2798 124.785 43.1875 124.795 43.0802 124.795C42.7186 124.795 42.4323 124.645 42.2214 124.345C42.0104 124.046 41.905 123.646 41.905 123.145C41.905 122.868 41.9408 122.628 42.0123 122.424C42.0839 122.221 42.1828 122.044 42.3089 121.893C42.4238 121.756 42.5632 121.647 42.7271 121.568C42.8909 121.487 43.0642 121.447 43.2468 121.447C43.4126 121.447 43.5482 121.465 43.6536 121.501C43.761 121.534 43.8853 121.588 44.0266 121.662V120.311H45.0153V124.707ZM44.0266 123.831V122.275C43.9776 122.25 43.9136 122.23 43.8344 122.215C43.7553 122.198 43.6875 122.19 43.6311 122.19C43.3937 122.19 43.2148 122.273 43.0943 122.438C42.9757 122.604 42.9163 122.836 42.9163 123.133C42.9163 123.446 42.9634 123.672 43.0576 123.811C43.1536 123.951 43.3081 124.02 43.5209 124.02C43.6075 124.02 43.6951 124.004 43.7836 123.97C43.8721 123.936 43.9531 123.89 44.0266 123.831Z" fill="#BC3334"/>
<path d="M47.5239 123.879V123.218C47.3563 123.235 47.2207 123.25 47.1171 123.263C47.0135 123.275 46.9118 123.298 46.812 123.334C46.7254 123.364 46.6576 123.41 46.6086 123.472C46.5615 123.533 46.538 123.614 46.538 123.715C46.538 123.864 46.5775 123.967 46.6566 124.023C46.7376 124.078 46.8563 124.105 47.0126 124.105C47.0992 124.105 47.1877 124.085 47.2781 124.046C47.3685 124.006 47.4505 123.951 47.5239 123.879ZM47.5239 124.371C47.4561 124.427 47.3949 124.478 47.3403 124.523C47.2876 124.569 47.216 124.614 47.1256 124.659C47.0371 124.702 46.9504 124.735 46.8657 124.758C46.7828 124.78 46.666 124.792 46.5154 124.792C46.2348 124.792 46.0012 124.698 45.8148 124.509C45.6302 124.321 45.5379 124.084 45.5379 123.797C45.5379 123.562 45.585 123.372 45.6792 123.227C45.7733 123.082 45.9089 122.967 46.086 122.882C46.2649 122.795 46.4787 122.735 46.7273 122.701C46.9759 122.667 47.2433 122.641 47.5296 122.622V122.605C47.5296 122.43 47.4646 122.309 47.3346 122.244C47.2066 122.176 47.0135 122.142 46.7555 122.142C46.6387 122.142 46.5022 122.163 46.3459 122.207C46.1896 122.248 46.037 122.302 45.8882 122.368H45.8035V121.602C45.9014 121.574 46.0596 121.541 46.2781 121.503C46.4965 121.464 46.7169 121.444 46.9391 121.444C47.4853 121.444 47.8827 121.535 48.1313 121.718C48.3818 121.899 48.507 122.176 48.507 122.549V124.707H47.5239V124.371Z" fill="#BC3334"/>
<path d="M52.123 124.707H51.1343V124.376C51.0702 124.429 50.9968 124.486 50.9139 124.546C50.8329 124.606 50.7614 124.651 50.6992 124.682C50.6201 124.719 50.542 124.747 50.4647 124.766C50.3875 124.785 50.2952 124.795 50.1879 124.795C49.8263 124.795 49.54 124.645 49.3291 124.345C49.1182 124.046 49.0127 123.646 49.0127 123.145C49.0127 122.868 49.0485 122.628 49.12 122.424C49.1916 122.221 49.2905 122.044 49.4167 121.893C49.5315 121.756 49.6709 121.647 49.8348 121.568C49.9986 121.487 50.1719 121.447 50.3546 121.447C50.5203 121.447 50.6559 121.465 50.7614 121.501C50.8687 121.534 50.993 121.588 51.1343 121.662V120.311H52.123V124.707ZM51.1343 123.831V122.275C51.0853 122.25 51.0213 122.23 50.9422 122.215C50.8631 122.198 50.7953 122.19 50.7388 122.19C50.5015 122.19 50.3225 122.273 50.202 122.438C50.0834 122.604 50.024 122.836 50.024 123.133C50.024 123.446 50.0711 123.672 50.1653 123.811C50.2613 123.951 50.4158 124.02 50.6286 124.02C50.7152 124.02 50.8028 124.004 50.8913 123.97C50.9798 123.936 51.0608 123.89 51.1343 123.831Z" fill="#BC3334"/>
<path d="M57.4623 124.707H56.4735V124.376C56.4095 124.429 56.336 124.486 56.2532 124.546C56.1722 124.606 56.1006 124.651 56.0385 124.682C55.9594 124.719 55.8812 124.747 55.804 124.766C55.7268 124.785 55.6345 124.795 55.5272 124.795C55.1656 124.795 54.8793 124.645 54.6684 124.345C54.4574 124.046 54.352 123.646 54.352 123.145C54.352 122.868 54.3877 122.628 54.4593 122.424C54.5309 122.221 54.6297 122.044 54.7559 121.893C54.8708 121.756 55.0102 121.647 55.174 121.568C55.3379 121.487 55.5111 121.447 55.6938 121.447C55.8596 121.447 55.9952 121.465 56.1006 121.501C56.208 121.534 56.3323 121.588 56.4735 121.662V120.311H57.4623V124.707ZM56.4735 123.831V122.275C56.4246 122.25 56.3605 122.23 56.2814 122.215C56.2023 122.198 56.1345 122.19 56.078 122.19C55.8407 122.19 55.6618 122.273 55.5413 122.438C55.4226 122.604 55.3633 122.836 55.3633 123.133C55.3633 123.446 55.4104 123.672 55.5046 123.811C55.6006 123.951 55.755 124.02 55.9679 124.02C56.0545 124.02 56.1421 124.004 56.2306 123.97C56.3191 123.936 56.4001 123.89 56.4735 123.831Z" fill="#BC3334"/>
<path d="M59.8466 124.792C59.2477 124.792 58.7882 124.649 58.468 124.362C58.1497 124.076 57.9906 123.668 57.9906 123.139C57.9906 122.621 58.1393 122.208 58.4369 121.899C58.7345 121.59 59.1507 121.436 59.6856 121.436C60.1715 121.436 60.5368 121.566 60.7817 121.828C61.0265 122.09 61.1489 122.465 61.1489 122.953V123.309H58.9821C58.9916 123.455 59.0226 123.579 59.0754 123.679C59.1281 123.777 59.1978 123.855 59.2844 123.913C59.3692 123.971 59.468 124.014 59.581 124.04C59.694 124.065 59.8174 124.077 59.9511 124.077C60.066 124.077 60.179 124.065 60.2901 124.04C60.4012 124.014 60.5029 123.98 60.5952 123.939C60.6762 123.903 60.7506 123.864 60.8184 123.823C60.8881 123.781 60.9446 123.745 60.9879 123.713H61.0924V124.529C61.0114 124.561 60.937 124.591 60.8692 124.619C60.8033 124.646 60.712 124.673 60.5952 124.701C60.4879 124.73 60.3767 124.751 60.2619 124.766C60.1489 124.783 60.0104 124.792 59.8466 124.792ZM60.1743 122.712C60.1686 122.503 60.1197 122.344 60.0274 122.235C59.937 122.126 59.7976 122.071 59.6093 122.071C59.4172 122.071 59.2665 122.129 59.1573 122.244C59.0499 122.358 58.9906 122.515 58.9793 122.712H60.1743Z" fill="#BC3334"/>
<path d="M62.6462 124.707H61.6574V120.311H62.6462V124.707Z" fill="#BC3334"/>
<path d="M69.0448 124.707H67.7566L66.5842 123.164H66.2057V124.707H65.1548V120.501H66.847C67.0805 120.501 67.2839 120.516 67.4572 120.546C67.6304 120.574 67.7905 120.634 67.9374 120.727C68.0881 120.823 68.2077 120.945 68.2962 121.094C68.3847 121.241 68.429 121.428 68.429 121.656C68.429 121.978 68.3564 122.24 68.2114 122.441C68.0664 122.641 67.8724 122.8 67.6295 122.919L69.0448 124.707ZM67.3442 121.789C67.3442 121.683 67.3234 121.593 67.282 121.518C67.2425 121.44 67.1756 121.381 67.0814 121.34C67.0155 121.311 66.9421 121.293 66.8611 121.286C66.7801 121.278 66.6793 121.275 66.5588 121.275H66.2057V122.407H66.5079C66.6549 122.407 66.7792 122.399 66.8809 122.382C66.9844 122.363 67.072 122.325 67.1436 122.266C67.2114 122.213 67.2613 122.15 67.2933 122.077C67.3272 122.003 67.3442 121.907 67.3442 121.789Z" fill="#BC3334"/>
<path d="M72.3472 123.122C72.3472 123.644 72.2041 124.055 71.9178 124.357C71.6335 124.656 71.2304 124.806 70.7087 124.806C70.1908 124.806 69.7878 124.656 69.4996 124.357C69.2134 124.055 69.0702 123.644 69.0702 123.122C69.0702 122.595 69.2134 122.182 69.4996 121.885C69.7878 121.585 70.1908 121.436 70.7087 121.436C71.2285 121.436 71.6316 121.586 71.9178 121.888C72.2041 122.187 72.3472 122.599 72.3472 123.122ZM71.3331 123.128C71.3331 122.939 71.3171 122.783 71.285 122.659C71.2549 122.533 71.2125 122.432 71.1579 122.357C71.0995 122.277 71.0336 122.223 70.9602 122.193C70.8867 122.161 70.8029 122.145 70.7087 122.145C70.6202 122.145 70.5402 122.159 70.4686 122.187C70.397 122.213 70.3311 122.265 70.2709 122.342C70.2144 122.416 70.1692 122.517 70.1353 122.645C70.1014 122.773 70.0844 122.934 70.0844 123.128C70.0844 123.322 70.1004 123.479 70.1324 123.6C70.1645 123.718 70.2059 123.813 70.2567 123.885C70.3095 123.958 70.3754 124.012 70.4545 124.046C70.5336 124.08 70.6212 124.097 70.7172 124.097C70.7963 124.097 70.8764 124.08 70.9573 124.046C71.0402 124.012 71.1061 123.961 71.1551 123.893C71.2135 123.812 71.2577 123.715 71.2879 123.602C71.318 123.487 71.3331 123.329 71.3331 123.128Z" fill="#BC3334"/>
<path d="M73.8388 124.795C73.6053 124.795 73.384 124.769 73.175 124.718C72.9678 124.667 72.7964 124.608 72.6608 124.54V123.704H72.7427C72.7898 123.74 72.8435 123.779 72.9038 123.823C72.964 123.866 73.0478 123.911 73.1552 123.958C73.2475 124.002 73.3511 124.039 73.4659 124.071C73.5827 124.101 73.7089 124.117 73.8445 124.117C73.9839 124.117 74.1063 124.095 74.2117 124.052C74.3191 124.008 74.3728 123.939 74.3728 123.845C74.3728 123.772 74.3483 123.716 74.2993 123.679C74.2504 123.641 74.1553 123.605 74.014 123.571C73.9387 123.552 73.8436 123.533 73.7287 123.512C73.6138 123.489 73.5121 123.464 73.4236 123.436C73.175 123.358 72.9876 123.245 72.8614 123.094C72.7371 122.941 72.6749 122.742 72.6749 122.495C72.6749 122.354 72.707 122.221 72.771 122.097C72.8369 121.97 72.933 121.858 73.0591 121.76C73.1853 121.664 73.3407 121.588 73.5253 121.532C73.7117 121.475 73.9217 121.447 74.1553 121.447C74.3775 121.447 74.5818 121.469 74.7683 121.515C74.9547 121.558 75.112 121.611 75.2401 121.673V122.475H75.1609C75.1271 122.449 75.0734 122.414 74.9999 122.371C74.9265 122.325 74.8549 122.287 74.7852 122.255C74.7024 122.217 74.6091 122.186 74.5055 122.162C74.4038 122.137 74.2993 122.125 74.192 122.125C74.0488 122.125 73.9274 122.149 73.8275 122.198C73.7296 122.247 73.6806 122.312 73.6806 122.393C73.6806 122.465 73.7051 122.521 73.7541 122.563C73.8031 122.604 73.9095 122.645 74.0733 122.684C74.1581 122.705 74.2551 122.726 74.3643 122.746C74.4754 122.765 74.5818 122.792 74.6835 122.825C74.9114 122.899 75.0837 123.007 75.2005 123.15C75.3192 123.292 75.3785 123.48 75.3785 123.715C75.3785 123.864 75.3436 124.006 75.2739 124.142C75.2043 124.276 75.1054 124.389 74.9773 124.481C74.8417 124.581 74.6816 124.658 74.4971 124.713C74.3144 124.767 74.095 124.795 73.8388 124.795Z" fill="#BC3334"/>
<path d="M77.5989 123.879V123.218C77.4313 123.235 77.2957 123.25 77.1921 123.263C77.0885 123.275 76.9868 123.298 76.887 123.334C76.8004 123.364 76.7326 123.41 76.6836 123.472C76.6365 123.533 76.613 123.614 76.613 123.715C76.613 123.864 76.6525 123.967 76.7317 124.023C76.8126 124.078 76.9313 124.105 77.0876 124.105C77.1742 124.105 77.2628 124.085 77.3532 124.046C77.4436 124.006 77.5255 123.951 77.5989 123.879ZM77.5989 124.371C77.5311 124.427 77.4699 124.478 77.4153 124.523C77.3626 124.569 77.291 124.614 77.2006 124.659C77.1121 124.702 77.0255 124.735 76.9407 124.758C76.8578 124.78 76.7411 124.792 76.5904 124.792C76.3098 124.792 76.0763 124.698 75.8898 124.509C75.7052 124.321 75.613 124.084 75.613 123.797C75.613 123.562 75.66 123.372 75.7542 123.227C75.8484 123.082 75.984 122.967 76.161 122.882C76.3399 122.795 76.5537 122.735 76.8023 122.701C77.0509 122.667 77.3183 122.641 77.6046 122.622V122.605C77.6046 122.43 77.5396 122.309 77.4097 122.244C77.2816 122.176 77.0885 122.142 76.8305 122.142C76.7138 122.142 76.5772 122.163 76.4209 122.207C76.2646 122.248 76.112 122.302 75.9632 122.368H75.8785V121.602C75.9764 121.574 76.1346 121.541 76.3531 121.503C76.5716 121.464 76.7919 121.444 77.0142 121.444C77.5603 121.444 77.9577 121.535 78.2063 121.718C78.4568 121.899 78.582 122.176 78.582 122.549V124.707H77.5989V124.371Z" fill="#BC3334"/>
<path d="M81.4438 122.47H81.3618C81.3242 122.456 81.2696 122.447 81.198 122.441C81.1264 122.434 81.0473 122.43 80.9607 122.43C80.8571 122.43 80.7479 122.445 80.633 122.475C80.52 122.505 80.4098 122.541 80.3025 122.583V124.707H79.3137V121.534H80.3025V121.989C80.3477 121.948 80.4098 121.896 80.4889 121.834C80.5699 121.77 80.6433 121.719 80.7093 121.681C80.7808 121.638 80.8637 121.601 80.9579 121.571C81.0539 121.539 81.1443 121.523 81.2291 121.523C81.2611 121.523 81.2969 121.524 81.3364 121.526C81.376 121.528 81.4117 121.531 81.4438 121.534V122.47Z" fill="#BC3334"/>
<path d="M82.8111 124.707H81.8223V121.534H82.8111V124.707ZM82.8393 121.082H81.7941V120.311H82.8393V121.082Z" fill="#BC3334"/>
<path d="M86.6135 123.122C86.6135 123.644 86.4704 124.055 86.1841 124.357C85.8997 124.656 85.4967 124.806 84.975 124.806C84.4571 124.806 84.0541 124.656 83.7659 124.357C83.4797 124.055 83.3365 123.644 83.3365 123.122C83.3365 122.595 83.4797 122.182 83.7659 121.885C84.0541 121.585 84.4571 121.436 84.975 121.436C85.4948 121.436 85.8979 121.586 86.1841 121.888C86.4704 122.187 86.6135 122.599 86.6135 123.122ZM85.5993 123.128C85.5993 122.939 85.5833 122.783 85.5513 122.659C85.5212 122.533 85.4788 122.432 85.4242 122.357C85.3658 122.277 85.2999 122.223 85.2265 122.193C85.153 122.161 85.0692 122.145 84.975 122.145C84.8865 122.145 84.8065 122.159 84.7349 122.187C84.6633 122.213 84.5974 122.265 84.5372 122.342C84.4807 122.416 84.4354 122.517 84.4015 122.645C84.3676 122.773 84.3507 122.934 84.3507 123.128C84.3507 123.322 84.3667 123.479 84.3987 123.6C84.4307 123.718 84.4722 123.813 84.523 123.885C84.5758 123.958 84.6417 124.012 84.7208 124.046C84.7999 124.08 84.8875 124.097 84.9835 124.097C85.0626 124.097 85.1426 124.08 85.2236 124.046C85.3065 124.012 85.3724 123.961 85.4214 123.893C85.4798 123.812 85.524 123.715 85.5542 123.602C85.5843 123.487 85.5993 123.329 85.5993 123.128Z" fill="#BC3334"/>
<path d="M41.315 0H67.8186C66.6393 1.51532 65.6842 3.29662 65.2519 5.16666C64.7471 7.77127 64.6234 10.6506 66.0621 12.9986C67.5174 16.0444 69.5366 18.8349 70.4452 22.1267C71.5537 24.99 71.0662 28.4912 69.5986 30.9926C68.7924 32.258 68.1646 32.6866 67.188 33.5573L41.2058 33.53C42.3643 32.2311 43.3445 30.7942 43.8005 29.0988C45.0678 25.4592 44.0483 21.4185 42.0653 18.2361C40.8607 15.9065 39.6255 13.5688 38.765 11.0891C37.9864 8.67315 38.0929 5.9822 39.3226 3.73294C39.9305 2.4591 40.6776 1.25849 41.315 0Z" fill="#BC3334"/>
</svg>
